<svg width="20" height="21" viewBox="0 0 20 21" fill="none" xmlns="http://www.w3.org/2000/svg">
<path fill-rule="evenodd" clip-rule="evenodd" d="M2.45465 4.16779L7.85777 9.57326C9.03621 10.7494 10.9625 10.7504 12.142 9.57326L17.5451 4.16779C17.5579 4.15509 17.5677 4.13973 17.5739 4.12281C17.58 4.10588 17.5824 4.08781 17.5808 4.06986C17.5792 4.05192 17.5737 4.03454 17.5647 4.01897C17.5556 4.00339 17.5432 3.99 17.5284 3.97974C16.9773 3.59541 16.3068 3.36755 15.5846 3.36755H4.4152C3.69289 3.36755 3.02238 3.59544 2.47129 3.97974C2.45648 3.99 2.44411 4.00339 2.43506 4.01897C2.426 4.03454 2.42049 4.05192 2.4189 4.06986C2.41731 4.08781 2.41969 4.10588 2.42587 4.12281C2.43205 4.13973 2.44187 4.15509 2.45465 4.16779ZM1.01074 6.77197C1.0103 6.22274 1.14378 5.68169 1.39961 5.19568C1.40854 5.17854 1.42139 5.16376 1.43711 5.15253C1.45283 5.14129 1.47098 5.13392 1.49008 5.13102C1.50918 5.12812 1.5287 5.12977 1.54705 5.13583C1.56539 5.1419 1.58205 5.1522 1.59567 5.16591L6.93039 10.5006C8.61973 12.1924 11.379 12.1934 13.0694 10.5006L18.4041 5.16591C18.4177 5.1522 18.4344 5.1419 18.4527 5.13583C18.4711 5.12977 18.4906 5.12812 18.5097 5.13102C18.5288 5.13392 18.5469 5.14129 18.5627 5.15253C18.5784 5.16376 18.5912 5.17854 18.6002 5.19568C18.856 5.68169 18.9894 6.22274 18.989 6.77197V13.8789C18.989 15.7575 17.4609 17.2833 15.5846 17.2833H4.4152C2.53895 17.2833 1.01074 15.7575 1.01074 13.8789V6.77197Z" fill="black"/>
</svg>
