<svg width="68" height="41" viewBox="0 0 68 41" fill="none" xmlns="http://www.w3.org/2000/svg">
<path d="M7 0.25H61C64.7279 0.25 67.75 3.27208 67.75 7V40.75H0.25V7C0.25 3.27208 3.27208 0.25 7 0.25Z" fill="white" stroke="#BBBBBB" stroke-width="0.5"/>
<line x1="1.17079" y1="3.81743" x2="32.1708" y2="32.8174" stroke="#BBBBBB" stroke-width="0.5"/>
<line y1="-0.25" x2="42.45" y2="-0.25" transform="matrix(-0.730271 0.683157 0.683157 0.730271 67 4)" stroke="#BBBBBB" stroke-width="0.5"/>
<path d="M35.0195 26.2544C35.5337 26.0084 36.1499 26.1735 36.4722 26.6437L36.9404 27.3262C37.128 27.5999 37.3981 27.8075 37.711 27.9179L38.4916 28.1927C39.0292 28.3823 39.3489 28.9361 39.2443 29.4964L39.092 30.3099C39.0312 30.6361 39.0759 30.9738 39.2191 31.2731L39.5761 32.0199C39.8222 32.534 39.657 33.1503 39.1869 33.4725L38.5044 33.9407C38.2307 34.1283 38.023 34.3984 37.9127 34.7113L37.6378 35.492C37.4482 36.0295 36.8944 36.3492 36.3341 36.2446L35.5206 36.0924C35.1945 36.0315 34.8567 36.0763 34.5574 36.2195L33.8107 36.5765C33.2965 36.8225 32.6803 36.6574 32.358 36.1872L31.8898 35.5047C31.7022 35.231 31.4321 35.0234 31.1192 34.913L30.3386 34.6381C29.801 34.4486 29.4813 33.8948 29.5859 33.3345L29.7382 32.521C29.799 32.1948 29.7543 31.8571 29.6111 31.5578L29.2541 30.811C29.008 30.2969 29.1732 29.6806 29.6433 29.3584L30.3258 28.8902C30.5995 28.7026 30.8072 28.4325 30.9175 28.1196L31.1924 27.3389C31.382 26.8014 31.9358 26.4817 32.4961 26.5862L33.3096 26.7385C33.6357 26.7994 33.9735 26.7546 34.2728 26.6114L35.0195 26.2544Z" fill="url(#paint0_linear_411_291)" stroke="#B88169" stroke-width="0.408182"/>
<defs>
<linearGradient id="paint0_linear_411_291" x1="40.3902" y1="33.2982" x2="32.848" y2="37.2638" gradientUnits="userSpaceOnUse">
<stop offset="0.177885" stop-color="#E7957D"/>
<stop offset="0.529462" stop-color="#FFD5C8"/>
<stop offset="1" stop-color="#B77159"/>
</linearGradient>
</defs>
</svg>
