<svg width="21" height="21" viewBox="0 0 21 21" fill="none" xmlns="http://www.w3.org/2000/svg">
<g clip-path="url(#clip0_407_10274)">
<path d="M19.7446 8.58669L11.5868 8.5863C11.2266 8.5863 10.9346 8.87826 10.9346 9.23849V11.8445C10.9346 12.2047 11.2266 12.4967 11.5868 12.4967H16.1807C15.6777 13.8022 14.7388 14.8956 13.5409 15.5902L15.4998 18.9812C18.642 17.1639 20.4998 13.9753 20.4998 10.4058C20.4998 9.89759 20.4623 9.53427 20.3874 9.12517C20.3304 8.81435 20.0606 8.58669 19.7446 8.58669Z" fill="#167EE6"/>
<path d="M10.4996 16.4124C8.25137 16.4124 6.28871 15.184 5.23461 13.3663L1.84375 15.3208C3.56934 18.3115 6.80191 20.3254 10.4996 20.3254C12.3135 20.3254 14.0251 19.837 15.4996 18.9859V18.9813L13.5407 15.5902C12.6447 16.1099 11.6078 16.4124 10.4996 16.4124Z" fill="#12B347"/>
<path d="M15.5 18.9859V18.9812L13.5411 15.5902C12.6451 16.1099 11.6083 16.4124 10.5 16.4124V20.3254C12.3139 20.3254 14.0256 19.837 15.5 18.9859Z" fill="#0F993E"/>
<path d="M4.41305 10.3254C4.41305 9.21727 4.71547 8.18051 5.23504 7.28453L1.84418 5.33008C0.988359 6.79988 0.5 8.50684 0.5 10.3254C0.5 12.144 0.988359 13.851 1.84418 15.3208L5.23504 13.3663C4.71547 12.4704 4.41305 11.4336 4.41305 10.3254Z" fill="#FFD500"/>
<path d="M10.4996 4.23849C11.9656 4.23849 13.3123 4.75942 14.3641 5.62595C14.6236 5.8397 15.0007 5.82427 15.2384 5.58657L17.0849 3.74009C17.3546 3.4704 17.3354 3.02895 17.0473 2.77903C15.285 1.25017 12.992 0.325439 10.4996 0.325439C6.80191 0.325439 3.56934 2.33939 1.84375 5.33009L5.23461 7.28454C6.28871 5.46685 8.25137 4.23849 10.4996 4.23849Z" fill="#FF4B26"/>
<path d="M14.3645 5.62595C14.624 5.8397 15.0012 5.82427 15.2389 5.58657L17.0854 3.74009C17.355 3.4704 17.3358 3.02895 17.0477 2.77903C15.2854 1.25013 12.9925 0.325439 10.5 0.325439V4.23849C11.966 4.23849 13.3127 4.75942 14.3645 5.62595Z" fill="#D93F21"/>
</g>
<defs>
<clipPath id="clip0_407_10274">
<rect width="20" height="20" fill="white" transform="translate(0.5 0.325439)"/>
</clipPath>
</defs>
</svg>
