<?xml version="1.0" encoding="UTF-8"?>
<svg id="Layer_1" xmlns="http://www.w3.org/2000/svg" version="1.1" xmlns:xlink="http://www.w3.org/1999/xlink" viewBox="0 0 595.28 841.89">
  <!-- Generator: Adobe Illustrator 29.5.1, SVG Export Plug-In . SVG Version: 2.1.0 Build 141)  -->
  <defs>
    <style>
      .st0 {
        fill: none;
      }

      .st1 {
        clip-path: url(#clippath-1);
      }

      .st2 {
        fill: #fafbfc;
      }

      .st3 {
        fill: #e9e8e8;
      }

      .st4 {
        opacity: .58;
      }

      .st5 {
        clip-path: url(#clippath);
      }
    </style>
    <clipPath id="clippath">
      <rect class="st0" x="85.62" y="215.19" width="424.74" height="416.89" rx="97.33" ry="97.33"/>
    </clipPath>
    <clipPath id="clippath-1">
      <rect class="st0" x="97.54" y="226.89" width="400.89" height="393.48" rx="83.94" ry="83.94"/>
    </clipPath>
  </defs>
  <rect class="st2" x="85.62" y="215.19" width="424.74" height="416.89" rx="97.33" ry="97.33"/>
  <rect class="st3" x="97.54" y="226.89" width="400.89" height="393.48" rx="83.94" ry="83.94"/>
  <g class="st4">
    <g class="st5">
      <path d="M457.47,608.25c-.1,0-.19.01-.29.01-1.23,0-2.22-.37-2.98-.95-.51-.27-.94-.63-1.29-1.05h-4.34v-42.83h.03v-37.21h-4.15v-37.41s-.03-.07-.04-.11h-1.63v-4h.29c-.22-.66-.43-1.32-.66-1.98-.95-2.77-2-5.48-2.98-8.22h-11.02v-36.13h-14.48v14.22H115.26v-44.33h-16.93v-9.45l-12.72,8.49-34.47,62.15,17.33,181.33,84,38.67,306.66-58.15-1.67-23.04Z"/>
    </g>
  </g>
  <g class="st1">
    <path d="M86.32,407.02c27.91-19.34,69.91-46.45,98.22-64.25,33.27-20.15,79.04-26.65,118.14-23.44,57.96,6.4,109.08,44.05,131.86,98.81,19.58,57.39,16.58,132.93,23.31,193.88.2,3.46,1.25,9.3.22,11.36-74.61,15.95-289.8,63.24-305.97,65.93-18.91-8.35-68.2-31.44-82.13-37.74-2.41-1.06-1.59-2.53-2.04-5.26-3.05-46.68-15.27-130.49-15.6-179.23,9.8-16.82,24.83-46.7,33.98-60.06Z"/>
  </g>
  <path class="st2" d="M315.22,422.97c-2.01-19.49-19.33-33.72-38.84-31.91l-10.29.95,1.28,15.72,11.89-.38c8.5-.27,15.61,6.4,15.88,14.9l.04,1.11-26.46.84,2.49,30.48,46.89-3.78-2.87-27.93Z"/>
  <path class="st2" d="M382.07,417.56c-2.26-24.51-26.8-36.18-49.13-30.96l1.28,15.72c12.95-1.11,27.17-1.16,27.8,15.63l-26.46.84,2.49,30.48,46.89-3.78-2.87-27.93Z"/>
</svg>